Coordinates
version=1
nRows=14
nColumns=46
inDegrees=yes

Units are S.I. units (second, meters, Newtons, ...)
Angles are in degrees.

endheader
time	pelvis_tilt	pelvis_list	pelvis_rotation	pelvis_tx	pelvis_ty	pelvis_tz	bb_angle	bb_tx	bb_ty	bb_tz	hip_flexion_r	hip_adduction_r	hip_rotation_r	knee_angle_r	knee_angle_r_beta	ankle_angle_r	subtalar_angle_r	mtp_angle_r	crank_angle_r	hip_flexion_l	hip_adduction_l	hip_rotation_l	knee_angle_l	knee_angle_l_beta	ankle_angle_l	subtalar_angle_l	mtp_angle_l	crank_angle_l	lumbar_extension	lumbar_bending	lumbar_rotation	arm_flex_r	arm_add_r	arm_rot_r	elbow_flex_r	pro_sup_r	wrist_flex_r	wrist_dev_r	arm_flex_l	arm_add_l	arm_rot_l	elbow_flex_l	pro_sup_l	wrist_flex_l	wrist_dev_l
      0.00000000	    -35.54774376	     -0.56147907	     -1.15124131	      0.05251340	      0.98121518	     -0.21066038	      0.00000000	      0.50000000	      0.00000000	      0.25000000	    106.76119835	    -11.56953123	     -7.23516467	     83.99365477	      1.46596583	      2.41589871	      1.37851241	      0.00000000	      0.00000000	     74.30910941	    -13.57841811	     -5.86710329	     73.05805159	      1.27510355	     -9.64237480	     -4.85030272	      0.00000000	      0.00000000	    -28.15477196	      0.96214866	      2.16168606	     89.61064264	     -0.95167576	     45.92838542	     21.69288497	     29.17629978	      0.00000000	      0.00000000	     89.51507584	     -7.44116615	     49.70483909	     23.44646915	     29.57955956	      0.00000000	      0.00000000
      0.00500000	    -35.57759854	     -0.55150615	     -1.19858627	      0.05251608	      0.98109082	     -0.21055009	      0.00000000	      0.50000000	      0.00000000	      0.25000000	    106.79767480	    -11.49378268	     -7.21683715	     83.98373650	      1.46579272	      2.39959005	      1.34220282	      0.00000000	      0.00000000	     74.34317381	    -13.65450246	     -5.90269371	     73.08743201	      1.27561633	     -9.55541743	     -4.67184220	      0.00000000	      0.00000000	    -28.09848131	      0.93458963	      2.22012951	     89.61089040	     -1.28255484	     47.22838772	     21.96598594	     28.94679551	      0.00000000	      0.00000000	     89.52676071	     -7.72677809	     51.24703484	     23.51226168	     29.72717555	      0.00000000	      0.00000000
      0.01000000	    -35.56283566	     -0.61660001	     -1.19996067	      0.05253489	      0.98114396	     -0.21046607	      0.00000000	      0.50000000	      0.00000000	      0.25000000	    106.74728709	    -11.48505184	     -7.28966975	     83.98073490	      1.46574033	      2.44951633	      1.29345653	      0.00000000	      0.00000000	     74.34248369	    -13.70334335	     -5.82359224	     73.09347458	      1.27572179	     -9.39923012	     -4.35915764	      0.00000000	      0.00000000	    -28.13108302	      0.98200464	      2.28516336	     89.60492656	     -0.80660016	     44.86197202	     21.68667748	     28.70144931	      0.00000000	      0.00000000	     89.51072443	     -7.07709916	     48.59911924	     23.04493719	     29.56296312	      0.00000000	      0.00000000
      0.01500000	    -35.55440183	     -0.56716111	     -1.16001163	      0.05254840	      0.98117968	     -0.21062564	      0.00000000	      0.50000000	      0.00000000	      0.25000000	    106.75262787	    -11.51379677	     -7.19899029	     83.99228853	      1.46594198	      2.47474790	      1.32684370	      0.00000000	      0.00000000	     74.32892784	    -13.62693683	     -5.89376812	     73.07627866	      1.27542167	     -9.61577526	     -4.68111699	      0.00000000	      0.00000000	    -28.11136021	      0.96794986	      2.18833915	     89.61280009	     -1.27910223	     47.33401901	     21.75014316	     29.77300735	      0.00000000	      0.00000000	     89.52523274	     -7.76733275	     51.21599344	     23.32063277	     30.94748085	      0.00000000	      0.00000000
      0.02000000	    -35.55672724	     -0.62000889	     -1.16220621	      0.05240322	      0.98075936	     -0.21067300	      0.00000000	      0.50000000	      0.00000000	      0.25000000	    106.77962940	    -11.47883590	     -7.16260521	     84.03880059	      1.46675377	      2.61467355	      1.39450196	      0.00000000	      0.00000000	     74.31898473	    -13.61042512	     -5.81406965	     73.01548147	      1.27436056	     -9.77083632	     -4.63280697	      0.00000000	      0.00000000	    -28.11306786	      1.02724039	      2.23362576	     89.61308757	     -1.13615043	     47.00706831	     21.45352806	     29.53838146	      0.00000000	      0.00000000	     89.52128676	     -7.52704726	     50.55287640	     23.15732823	     30.73583653	      0.00000000	      0.00000000
      0.02500000	    -35.59242212	     -0.63421419	     -1.17213356	      0.05230579	      0.98067281	     -0.21070047	      0.00000000	      0.50000000	      0.00000000	      0.25000000	    106.80983130	    -11.46231728	     -7.17128462	     84.03123332	      1.46662170	      2.61252259	      1.37529346	      0.00000000	      0.00000000	     74.35717874	    -13.60653520	     -5.79082111	     73.00372878	      1.27415543	     -9.76522059	     -4.59921431	      0.00000000	      0.00000000	    -28.06807200	      1.02819802	      2.25835491	     89.61113315	     -1.33419525	     47.71609125	     21.34453391	     30.78451329	      0.00000000	      0.00000000	     89.52690954	     -7.61716392	     50.94131427	     22.96827878	     32.14288323	      0.00000000	      0.00000000
      0.03000000	    -35.58830255	     -0.63264081	     -1.16989406	      0.05229971	      0.98063971	     -0.21071330	      0.00000000	      0.50000000	      0.00000000	      0.25000000	    106.80972846	    -11.46394362	     -7.17460821	     84.05002273	      1.46694963	      2.64823823	      1.38250090	      0.00000000	      0.00000000	     74.35329195	    -13.61061891	     -5.80143327	     72.98772961	      1.27387620	     -9.85514028	     -4.56287568	      0.00000000	      0.00000000	    -28.06391110	      1.01907252	      2.26031573	     89.61170441	     -1.38615239	     47.89530229	     21.33789769	     31.23701515	      0.00000000	      0.00000000	     89.52681843	     -7.57555183	     50.81769474	     22.79046010	     32.71223873	      0.00000000	      0.00000000
      0.03500000	    -35.57674148	     -0.63166314	     -1.15196417	      0.05226638	      0.98062670	     -0.21076320	      0.00000000	      0.50000000	      0.00000000	      0.25000000	    106.81332299	    -11.48247653	     -7.16538982	     84.06826801	      1.46726807	      2.67017954	      1.38825972	      0.00000000	      0.00000000	     74.35341670	    -13.58986819	     -5.81003977	     72.98686029	      1.27386102	     -9.95683405	     -4.68450075	      0.00000000	      0.00000000	    -28.09031354	      1.01372057	      2.20194023	     89.61397045	     -1.11396301	     46.86547869	     21.11952428	     31.36957343	      0.00000000	      0.00000000	     89.51333352	     -7.45183851	     49.64288022	     22.87628130	     32.85656422	      0.00000000	      0.00000000
      0.04000000	    -35.60658504	     -0.66259234	     -1.14301868	      0.05222484	      0.98059996	     -0.21078228	      0.00000000	      0.50000000	      0.00000000	      0.25000000	    106.83588157	    -11.49998153	     -7.17412833	     84.05608576	      1.46705545	      2.62632846	      1.61598414	      0.00000000	      0.00000000	     74.39964419	    -13.59456047	     -5.79841656	     72.96050997	      1.27340112	    -10.17458411	     -4.93640567	      0.00000000	      0.00000000	    -28.12320868	      1.06693116	      2.21315534	     89.60373063	     -0.94093714	     45.21910175	     21.26419994	     32.08291141	      0.00000000	      0.00000000	     89.49117291	     -7.39869729	     47.89537064	     23.16142996	     33.52031484	      0.00000000	      0.00000000
      0.04500000	    -35.55115548	     -0.62900453	     -1.14417324	      0.05234897	      0.98061144	     -0.21068504	      0.00000000	      0.50000000	      0.00000000	      0.25000000	    106.80313627	    -11.47072763	     -7.13453029	     84.10119543	      1.46784277	      2.72044535	      1.33061042	      0.00000000	      0.00000000	     74.31539081	    -13.61080830	     -5.82667981	     72.97828774	      1.27371140	     -9.86763002	     -4.49774563	      0.00000000	      0.00000000	    -28.09868288	      1.00523798	      2.18217227	     89.61454284	     -1.32297125	     48.12379229	     21.51521119	     29.58330378	      0.00000000	      0.00000000	     89.52069130	     -7.72901391	     50.91053797	     23.30037793	     31.32383697	      0.00000000	      0.00000000
      0.05000000	    -35.56599257	     -0.65071308	     -1.14490764	      0.05238206	      0.98061507	     -0.21061209	      0.00000000	      0.50000000	      0.00000000	      0.25000000	    106.81830024	    -11.45465149	     -7.14367487	     84.10458612	      1.46790194	      2.70033636	      1.33853454	      0.00000000	      0.00000000	     74.33131267	    -13.63855050	     -5.81757783	     72.96142946	      1.27341717	     -9.92250389	     -4.49907708	      0.00000000	      0.00000000	    -28.09197320	      1.01125105	      2.23032952	     89.60713098	     -1.36025581	     47.87280482	     21.71003712	     29.27286336	      0.00000000	      0.00000000	     89.52359141	     -7.62406527	     50.93059133	     23.20112434	     30.93742270	      0.00000000	      0.00000000
      0.05500000	    -35.52566471	     -0.64684941	     -1.16066406	      0.05244659	      0.98067310	     -0.21058064	      0.00000000	      0.50000000	      0.00000000	      0.25000000	    106.78620604	    -11.43883920	     -7.13652575	     84.10867396	      1.46797329	      2.69574051	      1.35952274	      0.00000000	      0.00000000	     74.27165179	    -13.66226559	     -5.84698714	     72.94853346	      1.27319209	     -9.94993975	     -4.50402102	      0.00000000	      0.00000000	    -28.14601934	      0.99611668	      2.21535826	     89.60997103	     -1.33155613	     48.14630308	     21.87958671	     27.76708111	      0.00000000	      0.00000000	     89.52125849	     -7.68953417	     50.91467060	     23.66166156	     29.39043960	      0.00000000	      0.00000000
      0.06000000	    -35.52282192	     -0.64900507	     -1.11955425	      0.05243750	      0.98063074	     -0.21062541	      0.00000000	      0.50000000	      0.00000000	      0.25000000	    106.80698076	    -11.48131922	     -7.12217914	     84.14455201	      1.46859948	      2.69192396	      1.31724890	      0.00000000	      0.00000000	     74.28141615	    -13.62708684	     -5.83216961	     72.94701584	      1.27316561	     -9.93186915	     -4.44306444	      0.00000000	      0.00000000	    -28.14458853	      0.99515666	      2.19805648	     89.61209779	     -1.39231175	     48.33384522	     22.00915426	     26.94854877	      0.00000000	      0.00000000	     89.51721556	     -7.70651186	     51.02820110	     23.93430615	     28.42679184	      0.00000000	      0.00000000
      0.06500000	    -35.45734394	     -0.63535226	     -1.07163195	      0.05240995	      0.98079152	     -0.21073296	      0.00000000	      0.50000000	      0.00000000	      0.25000000	    106.75279859	    -11.53144111	     -7.09077420	     84.16283364	      1.46891855	      2.71069733	      1.27723506	      0.00000000	      0.00000000	     74.20187422	    -13.54518282	     -5.85401788	     72.88700586	      1.27211823	    -10.19614438	     -4.90621822	      0.00000000	      0.00000000	    -28.28607536	      0.99455570	      2.08775341	     89.60961639	     -0.27914241	     43.79957796	     21.16472443	     27.86973401	      0.00000000	      0.00000000	     89.47788063	     -6.88003691	     46.14792467	     23.60520841	     29.12777538	      0.00000000	      0.00000000
